<svg version="1.1" id="Layer_1" xmlns="http://www.w3.org/2000/svg" xmlns:xlink="http://www.w3.org/1999/xlink" x="0px" y="0px"
	 width="100%" viewBox="0 0 531 546" enable-background="new 0 0 531 546" xml:space="preserve">
<path fill="#EFEFEF" opacity="1.000000" stroke="none" 
	d="
M195.000000,0.999997 
	C206.687561,1.000000 218.375122,1.000000 230.221954,1.333355 
	C230.866409,2.095318 231.304016,2.821851 231.843903,2.908095 
	C240.741791,4.329459 248.678314,8.024657 256.305206,12.689633 
	C269.920654,21.017488 280.874878,32.225285 286.701599,46.824360 
	C297.274109,73.314377 306.311981,100.415901 316.065002,127.235069 
	C317.514587,131.221207 319.370422,135.059631 321.135834,139.194916 
	C322.792542,138.005203 324.002655,137.196335 325.147888,136.304169 
	C333.837128,129.535172 342.527985,122.768143 351.190613,115.965134 
	C362.668396,106.951271 374.166443,97.962273 385.570526,88.855804 
	C395.410919,80.997986 405.602600,73.770935 417.803192,69.997025 
	C431.563324,65.740700 445.389374,64.975723 459.659821,67.874001 
	C478.881439,71.777832 494.794342,81.305786 506.523773,96.468475 
	C519.320862,113.011307 525.351746,132.016678 523.203186,153.594101 
	C521.302307,172.683945 514.127747,189.178589 500.785889,202.279083 
	C490.154663,212.717926 477.663422,221.274063 465.913300,230.558884 
	C450.744904,242.544754 435.492249,254.423935 420.027374,266.543823 
	C443.363861,282.198822 466.502655,297.959351 489.891998,313.338867 
	C509.837799,326.454132 525.371399,342.644745 530.113159,367.060486 
	C530.194641,367.479950 531.347229,367.691437 532.000000,368.000000 
	C532.000000,379.020905 532.000000,390.041779 531.670837,401.222656 
	C530.895264,402.196838 530.268311,402.961487 530.028931,403.832642 
	C524.791626,422.892334 515.036316,438.812378 498.450592,450.182556 
	C480.984222,462.156494 461.952515,466.972595 440.851959,464.079102 
	C428.713226,462.414520 417.496368,458.666870 407.324860,451.853821 
	C381.682159,434.677826 356.052917,417.481750 330.210052,400.154144 
	C327.101776,411.229126 324.053558,422.159821 320.964966,433.079102 
	C315.982635,450.693634 310.973572,468.300598 305.976105,485.910858 
	C301.893982,500.295624 295.152893,513.359375 284.419830,523.753235 
	C273.381592,534.442566 260.261322,541.944031 244.937973,545.067627 
	C244.191696,545.219727 243.641495,546.333862 243.000000,547.000000 
	C233.312439,547.000000 223.624878,547.000000 213.778030,546.666382 
	C213.133789,545.904419 212.707382,545.206665 212.155380,545.086609 
	C191.529617,540.601746 174.391739,530.696289 161.805252,513.370117 
	C148.002228,494.369232 143.679291,473.004883 148.488861,450.560486 
	C152.849518,430.211029 159.588120,410.370453 165.297699,390.311035 
	C168.520615,378.987946 171.782669,367.675964 175.273926,355.497955 
	C165.245193,356.026245 156.023636,356.575317 146.795746,356.980530 
	C137.388458,357.393585 127.976906,357.861084 118.563736,357.955078 
	C102.578186,358.114777 86.557358,358.638641 70.611656,357.826111 
	C53.746799,356.966766 39.268513,349.357819 26.842947,338.223724 
	C14.861806,327.487854 6.736223,314.213654 2.924520,298.435791 
	C2.779902,297.837158 1.663544,297.473267 1.000002,297.000000 
	C1.000000,285.312439 1.000000,273.624878 1.329116,261.777557 
	C2.100366,260.970520 2.773549,260.380737 2.951135,259.667603 
	C8.734802,236.441788 22.595236,219.638214 43.265549,207.907211 
	C57.217110,199.989273 72.543396,199.055084 87.902824,198.041702 
	C96.468102,197.476562 105.059410,197.272919 113.642258,197.014832 
	C126.547516,196.626770 139.457016,196.378876 152.361877,195.979355 
	C157.872223,195.808777 163.375381,195.406235 169.242920,195.089630 
	C163.199203,178.334686 157.383240,162.270432 151.610199,146.190750 
	C145.125290,128.128387 137.354904,110.494034 134.567505,91.244766 
	C132.549942,77.311752 134.198746,63.540657 139.037308,50.833668 
	C148.617661,25.673887 167.319031,9.763212 193.536072,2.927370 
	C194.149841,2.767335 194.517532,1.663570 195.000000,0.999997 
z"/>
<path fill="#000000" opacity="0" stroke="none" 
	d="
M532.000000,367.531342 
	C531.347229,367.691437 530.194641,367.479950 530.113159,367.060486 
	C525.371399,342.644745 509.837799,326.454132 489.891998,313.338867 
	C466.502655,297.959351 443.363861,282.198822 420.027374,266.543823 
	C435.492249,254.423935 450.744904,242.544754 465.913300,230.558884 
	C477.663422,221.274063 490.154663,212.717926 500.785889,202.279083 
	C514.127747,189.178589 521.302307,172.683945 523.203186,153.594101 
	C525.351746,132.016678 519.320862,113.011307 506.523773,96.468475 
	C494.794342,81.305786 478.881439,71.777832 459.659821,67.874001 
	C445.389374,64.975723 431.563324,65.740700 417.803192,69.997025 
	C405.602600,73.770935 395.410919,80.997986 385.570526,88.855804 
	C374.166443,97.962273 362.668396,106.951271 351.190613,115.965134 
	C342.527985,122.768143 333.837128,129.535172 325.147888,136.304169 
	C324.002655,137.196335 322.792542,138.005203 321.135834,139.194916 
	C319.370422,135.059631 317.514587,131.221207 316.065002,127.235069 
	C306.311981,100.415901 297.274109,73.314377 286.701599,46.824360 
	C280.874878,32.225285 269.920654,21.017488 256.305206,12.689633 
	C248.678314,8.024657 240.741791,4.329459 231.843903,2.908095 
	C231.304016,2.821851 230.866409,2.095318 230.690613,1.333355 
	C331.267609,1.000000 431.535187,1.000000 532.000000,1.000000 
	C532.000000,123.020821 532.000000,245.041748 532.000000,367.531342 
z"/>
<path fill="#000000" opacity="0" stroke="none" 
	d="
M1.000002,297.468658 
	C1.663544,297.473267 2.779902,297.837158 2.924520,298.435791 
	C6.736223,314.213654 14.861806,327.487854 26.842947,338.223724 
	C39.268513,349.357819 53.746799,356.966766 70.611656,357.826111 
	C86.557358,358.638641 102.578186,358.114777 118.563736,357.955078 
	C127.976906,357.861084 137.388458,357.393585 146.795746,356.980530 
	C156.023636,356.575317 165.245193,356.026245 175.273926,355.497955 
	C171.782669,367.675964 168.520615,378.987946 165.297699,390.311035 
	C159.588120,410.370453 152.849518,430.211029 148.488861,450.560486 
	C143.679291,473.004883 148.002228,494.369232 161.805252,513.370117 
	C174.391739,530.696289 191.529617,540.601746 212.155380,545.086609 
	C212.707382,545.206665 213.133789,545.904419 213.309372,546.666382 
	C142.400299,547.000000 71.800591,547.000000 1.000000,547.000000 
	C1.000000,463.979218 1.000000,380.958252 1.000002,297.468658 
z"/>
<path fill="#000000" opacity="0" stroke="none" 
	d="
M194.531342,0.999997 
	C194.517532,1.663570 194.149841,2.767335 193.536072,2.927370 
	C167.319031,9.763212 148.617661,25.673887 139.037308,50.833668 
	C134.198746,63.540657 132.549942,77.311752 134.567505,91.244766 
	C137.354904,110.494034 145.125290,128.128387 151.610199,146.190750 
	C157.383240,162.270432 163.199203,178.334686 169.242920,195.089630 
	C163.375381,195.406235 157.872223,195.808777 152.361877,195.979355 
	C139.457016,196.378876 126.547516,196.626770 113.642258,197.014832 
	C105.059410,197.272919 96.468102,197.476562 87.902824,198.041702 
	C72.543396,199.055084 57.217110,199.989273 43.265549,207.907211 
	C22.595236,219.638214 8.734802,236.441788 2.951135,259.667603 
	C2.773549,260.380737 2.100366,260.970520 1.329116,261.308899 
	C1.000000,174.416916 1.000000,87.833817 1.000000,1.000000 
	C65.354012,1.000000 129.708344,1.000000 194.531342,0.999997 
z"/>
<path fill="#000000" opacity="0" stroke="none" 
	d="
M243.468658,547.000000 
	C243.641495,546.333862 244.191696,545.219727 244.937973,545.067627 
	C260.261322,541.944031 273.381592,534.442566 284.419830,523.753235 
	C295.152893,513.359375 301.893982,500.295624 305.976105,485.910858 
	C310.973572,468.300598 315.982635,450.693634 320.964966,433.079102 
	C324.053558,422.159821 327.101776,411.229126 330.210052,400.154144 
	C356.052917,417.481750 381.682159,434.677826 407.324860,451.853821 
	C417.496368,458.666870 428.713226,462.414520 440.851959,464.079102 
	C461.952515,466.972595 480.984222,462.156494 498.450592,450.182556 
	C515.036316,438.812378 524.791626,422.892334 530.028931,403.832642 
	C530.268311,402.961487 530.895264,402.196838 531.670837,401.691284 
	C532.000000,450.284576 532.000000,498.569122 532.000000,547.000000 
	C435.979156,547.000000 339.958221,547.000000 243.468658,547.000000 
z"/>
</svg>